<svg width="26" height="24" viewBox="0 0 26 24" fill="none" xmlns="http://www.w3.org/2000/svg">
  <path fill-rule="evenodd" clip-rule="evenodd"
    d="M13.1215 0C6.17093 0 0.534721 5.5085 0.534721 12.3048C0.534721 17.74 4.141 22.352 9.14358 23.9789C9.77257 24.0915 10.0028 23.7115 10.0028 23.386C10.0028 23.0937 9.99202 22.3203 9.98584 21.293C6.48465 22.0363 5.74593 19.6434 5.74593 19.6434C5.17335 18.2219 4.34808 17.8435 4.34808 17.8435C3.20523 17.0799 4.43463 17.0958 4.43463 17.0958C5.69802 17.1826 6.36256 18.3639 6.36256 18.3639C7.48531 20.2439 9.30894 19.7016 10.026 19.3866C10.1404 18.5913 10.4657 18.049 10.825 17.7415C8.03009 17.4311 5.09144 16.3752 5.09144 11.6605C5.09144 10.3176 5.58212 9.21935 6.38729 8.35905C6.25825 8.04786 5.82552 6.79706 6.51092 5.10289C6.51092 5.10289 7.568 4.77206 9.97192 6.36426C10.9757 6.0916 12.0529 5.95489 13.1231 5.95036C14.1917 5.95489 15.2689 6.0916 16.2742 6.36426C18.6774 4.77206 19.7321 5.10289 19.7321 5.10289C20.4191 6.79706 19.9871 8.04786 19.8573 8.35905C20.664 9.21935 21.1508 10.3176 21.1508 11.6605C21.1508 16.3873 18.2076 17.4273 15.4034 17.7317C15.8554 18.1117 16.258 18.8624 16.258 20.0105C16.258 21.6556 16.2425 22.9827 16.2425 23.386C16.2425 23.7153 16.4689 24.0975 17.108 23.9774C22.1051 22.3474 25.7083 17.7385 25.7083 12.3048C25.7099 5.5085 20.0737 0 13.1215 0Z"
    fill="#fff" />
</svg>